REM GENRE Rock
REM DATE 1989
PERFORMER "Zvuki Mu"
TITLE "Krym"
FILE "Zvuki Mu - Krym.flac" WAVE
  TRACK 01 AUDIO
    TITLE "The Source Of Infection"
    PERFORMER "Zvuki Mu"
    INDEX 01 00:00:00
  TRACK 02 AUDIO
    TITLE "Crazy Queen"
    PERFORMER "Zvuki Mu"
    INDEX 01 02:57:69
  TRACK 03 AUDIO
    TITLE "Forgotten Sex"
    PERFORMER "Zvuki Mu"
    INDEX 01 06:47:75
  TRACK 04 AUDIO
    TITLE "Zero Minus One"
    PERFORMER "Zvuki Mu"
    INDEX 01 12:33:66
  TRACK 05 AUDIO
    TITLE "Leave-me-alone"
    PERFORMER "Zvuki Mu"
    INDEX 01 15:47:20
  TRACK 06 AUDIO
    TITLE "Krym"
    PERFORMER "Zvuki Mu"
    INDEX 01 20:13:75
  TRACK 07 AUDIO
    TITLE "Gadopiatikna"
    PERFORMER "Zvuki Mu"
    INDEX 01 22:26:75
  TRACK 08 AUDIO
    TITLE "Paper Flowers"
    PERFORMER "Zvuki Mu"
    INDEX 01 28:58:70
  TRACK 09 AUDIO
    TITLE "Traffic Policeman"
    PERFORMER "Zvuki Mu"
    INDEX 01 32:03:07
  TRACK 10 AUDIO
    TITLE "Zima (Winter)"
    PERFORMER "Zvuki Mu"
    INDEX 01 35:51:64
